<svg width="35" height="40" viewBox="0 0 35 40" fill="none" xmlns="http://www.w3.org/2000/svg">
<path d="M25.574 18.0458L22.8662 17.4442L24.9723 20.4519V29.7755L32.1932 23.7603V13.5343L28.8836 14.7374L25.574 18.0458Z" fill="#4f8ff7"/>
<path d="M8.72528 18.0458L11.4331 17.4442L9.32702 20.4519V29.7755L2.10615 23.7603V13.5343L5.41571 14.7374L8.72528 18.0458Z" fill="#4f8ff7"/>
<path fill-rule="evenodd" clip-rule="evenodd" d="M10.2295 21.0534L12.6364 17.4442L14.1408 18.3465H20.1582L21.6625 17.4442L24.0695 21.0534V34.5877L22.2643 37.2946L20.1582 39.3999H14.1408L12.0347 37.2946L10.2295 34.5877V21.0534Z" fill="#4f8ff7"/>
<path d="M24.9722 35.49L28.8835 31.5801V27.6702L24.9722 30.9786V35.49Z" fill="#4f8ff7"/>
<path d="M9.32715 35.49L5.41584 31.5801V27.6702L9.32715 30.9786V35.49Z" fill="#4f8ff7"/>
<path fill-rule="evenodd" clip-rule="evenodd" d="M21.0611 0H20.1585V5.7988L21.8144 1.78842L21.0611 0ZM19.5764 7.20849L18.955 7.51908V0H17.7515V11.6281L19.5764 7.20849ZM17.7515 14.2483L22.3607 3.08549L23.4681 5.7145L19.8576 17.1435H17.7515V14.2483ZM16.5481 11.6718V0H15.3446V7.51908L14.8436 7.26869L16.5481 11.6718ZM14.1411 5.45385V0H13.2385L12.6087 1.49519L14.1411 5.45385ZM12.0499 2.82181L16.5481 14.4419V17.1435H14.7428L10.8315 5.7145L12.0499 2.82181Z" fill="#101d31"/>
<path fill-rule="evenodd" clip-rule="evenodd" d="M1.80522 12.3313L14.7426 17.1436H15.0435L11.1322 5.71455L0 4.81226L1.80522 12.3313ZM32.7948 12.3313L19.8574 17.1436H19.5565L23.167 5.71455L34.6 4.81226L32.7948 12.3313Z" fill="#4f8ff7"/>
<path d="M24.0695 4.81221L30.3877 4.21069L26.1756 0H21.9634L24.0695 4.81221Z" fill="#101d31"/>
<path d="M10.2294 4.81221L3.9111 4.21069L8.12328 0H12.3354L10.2294 4.81221Z" fill="#101d31"/>
<path d="M4.7002 5.19995L11.2002 5.69995L15.1002 17.15H14.7002L10.5002 15.6L4.7002 5.19995Z" fill="#101d31"/>
<path d="M29.7999 5.19995L23.0999 5.69995L19.3999 17.15L19.8999 17.14L23.7999 15.7L29.7999 5.19995Z" fill="#101d31"/>
<path d="M12.1001 18.2L12.6001 17.4L14.3001 18.2H20.3001L21.6001 17.4L22.2001 18.2L17.1501 26.8L12.1001 18.2Z" fill="#101d31"/>
<path fill-rule="evenodd" clip-rule="evenodd" d="M12.0298 0L17.1215 13.1536L22.5527 0H12.0298Z" fill="#4f8ff7"/>
</svg>
